<?xml version="1.0" encoding="iso-8859-1"?>
<svg xmlns="http://www.w3.org/2000/svg" xmlns:xlink="http://www.w3.org/1999/xlink" version="1.1" id="Layer_1" x="0px" y="0px" viewBox="0 0 236.801 236.801" style="enable-background:new 0 0 236.801 236.801;" xml:space="preserve" width="512px" height="512px">
<g transform="translate(0 -972.36)" shape-rendering="auto" image-rendering="auto" color-rendering="auto" color-interpolation="sRGB">
	<path d="M16.226,972.362c-8.835-0.123-16.098,6.939-16.222,15.775c-0.123,8.836,6.939,16.098,15.774,16.222   c0.149,0.002,0.298,0.002,0.447,0h204.348c8.835,0.123,16.098-6.939,16.222-15.775c0.123-8.836-6.939-16.098-15.774-16.222   c-0.149-0.002-0.298-0.002-0.447,0H16.226L16.226,972.362z" fill="#FFFFFF"/>
	<path d="M16.226,1074.762c-8.835-0.123-16.098,6.939-16.222,15.775c-0.123,8.835,6.939,16.098,15.774,16.222   c0.149,0.002,0.298,0.002,0.447,0h204.348c8.835,0.123,16.098-6.939,16.222-15.775c0.123-8.835-6.939-16.098-15.774-16.222   c-0.149-0.002-0.298-0.002-0.447,0H16.226L16.226,1074.762z" fill="#FFFFFF"/>
	<path d="M16.226,1177.162c-8.835-0.123-16.098,6.939-16.222,15.775c-0.123,8.835,6.939,16.098,15.774,16.222   c0.149,0.002,0.298,0.002,0.447,0h204.348c8.835,0.124,16.098-6.939,16.222-15.775c0.123-8.835-6.939-16.099-15.774-16.222   c-0.149-0.002-0.298-0.002-0.447,0H16.226L16.226,1177.162z" fill="#FFFFFF"/>
</g>
</svg>
